<svg xmlns="http://www.w3.org/2000/svg" viewBox="0 0 1024 1024"><title>图标制作模版</title><g id="图层_2" data-name="图层 2"><path d="M920.31,575.79c-49.5-49.5-123.21-60.4-183.37-32.69L656.82,433.69l.54-.52a214,214,0,1,0-302.64,0,217.53,217.53,0,0,0,22.5,19.59l-64.62,120c-66.73-22.49-143.51-7.21-196.59,45.87-74.56,74.56-74.56,195.89,0,270.46a191.25,191.25,0,1,0,252.93-286l64.53-119.88a215.28,215.28,0,0,0,171.76-11.71l80,109.27c-58.61,63.79-57,163.37,4.82,225.2a163,163,0,0,0,230.24,0h0C983.79,742.56,983.79,639.27,920.31,575.79ZM341.22,843.87h0a127.25,127.25,0,1,1,37.27-90A127.39,127.39,0,0,1,341.22,843.88Zm58.76-456A150,150,0,0,1,612.1,175.79c58.48,58.48,58.48,153.64,0,212.12S458.46,446.4,400,387.91ZM875.06,760.78a98.77,98.77,0,1,1,0-139.73A98.92,98.92,0,0,1,875.06,760.78Z"/></g></svg>