<svg xmlns="http://www.w3.org/2000/svg" viewBox="0 0 1024 1024"><title>图标制作模版</title><g id="图层_2" data-name="图层 2"><path d="M598.05,304.09a118.75,118.75,0,1,0-83.94-34.78A117.9,117.9,0,0,0,598.05,304.09ZM559.38,146.62a54.73,54.73,0,0,1,77.34,77.45h0a54.73,54.73,0,1,1-77.34-77.45Z"/><path d="M903.89,447,748.58,292.33l-45.16,45.34L858.67,492.32c44.31,44.33,44.38,116.4.16,160.65a112.45,112.45,0,0,1-80.09,33.18h-.09a112.92,112.92,0,0,1-80.27-33.32L370.93,324.26a176.54,176.54,0,0,0-125.53-52.1h-.14A176,176,0,0,0,119.9,324.1c-69.15,69.19-69.08,181.85.16,251.13L275.37,730.62l45.26-45.24L165.33,530C121,485.65,121,413.58,165.17,369.34a112.45,112.45,0,0,1,80.09-33.18h.09a112.86,112.86,0,0,1,80.27,33.31L653.07,698A176.51,176.51,0,0,0,778.6,750.15h.14A176.07,176.07,0,0,0,904.1,698.21C973.25,629,973.18,516.36,903.89,447Z"/><path d="M426,720.1a118.76,118.76,0,1,0,83.93,34.79A117.87,117.87,0,0,0,426,720.1Zm38.67,157.47a54.75,54.75,0,1,1,0-77.44A54.35,54.35,0,0,1,464.62,877.57Z"/></g></svg>