<svg xmlns="http://www.w3.org/2000/svg" viewBox="0 0 1024 1024"><title>图标制作模版</title><g id="图层_2" data-name="图层 2"><path d="M916,361.68A445.53,445.53,0,0,0,544,107.11V64H480v43.1c-222.78,15.78-402.42,195-415.26,421.09L62.82,562H480V813.68a82.32,82.32,0,1,1-164.63,0V754.82h-64v58.86C251.37,894.36,317,960,397.68,960S544,894.36,544,813.68V562H814.57V498H132.05c27.17-186.48,188-328,380-328A381.7,381.7,0,0,1,858.12,389a392.88,392.88,0,0,1,37.19,166.53V562h64v-6.49A457.14,457.14,0,0,0,916,361.68Z"/></g></svg>